<mxfile host="app.diagrams.net" modified="2021-08-30T20:39:53.072Z" agent="5.0 (Windows NT 10.0; Win64; x64) AppleWebKit/537.36 (KHTML, like Gecko) Chrome/92.0.4515.159 Safari/537.36" etag="JCRZVTHsSeb-FPLSePA8" version="14.9.9" type="github">
  <diagram id="MHJAUoNGPAfE5S7k3dKj" name="Page-1">
    <mxGraphModel dx="1916" dy="1688" grid="1" gridSize="10" guides="1" tooltips="1" connect="1" arrows="1" fold="1" page="1" pageScale="1" pageWidth="850" pageHeight="1100" math="0" shadow="0">
      <root>
        <mxCell id="0" />
        <mxCell id="1" parent="0" />
        <mxCell id="i73I1j9JjoyaVxsubx8I-6" value="" style="rounded=0;whiteSpace=wrap;html=1;" vertex="1" parent="1">
          <mxGeometry x="305" y="280" width="240" height="250" as="geometry" />
        </mxCell>
        <mxCell id="i73I1j9JjoyaVxsubx8I-7" value="" style="whiteSpace=wrap;html=1;aspect=fixed;" vertex="1" parent="1">
          <mxGeometry x="320" y="295" width="220" height="220" as="geometry" />
        </mxCell>
        <mxCell id="i73I1j9JjoyaVxsubx8I-39" style="edgeStyle=orthogonalEdgeStyle;rounded=0;orthogonalLoop=1;jettySize=auto;html=1;entryX=1;entryY=0.5;entryDx=0;entryDy=0;" edge="1" parent="1" source="i73I1j9JjoyaVxsubx8I-16" target="i73I1j9JjoyaVxsubx8I-21">
          <mxGeometry relative="1" as="geometry" />
        </mxCell>
        <mxCell id="i73I1j9JjoyaVxsubx8I-16" value="" style="rounded=0;whiteSpace=wrap;html=1;" vertex="1" parent="1">
          <mxGeometry x="330" y="315" width="90" height="40" as="geometry" />
        </mxCell>
        <mxCell id="i73I1j9JjoyaVxsubx8I-8" value="Submit" style="rounded=1;fillColor=#0057D8;align=center;strokeColor=none;html=1;fontColor=#ffffff;fontSize=12" vertex="1" parent="1">
          <mxGeometry x="430" y="330.5" width="45" height="25" as="geometry" />
        </mxCell>
        <mxCell id="i73I1j9JjoyaVxsubx8I-9" value="message" style="text;html=1;strokeColor=none;fillColor=none;align=center;verticalAlign=middle;whiteSpace=wrap;rounded=0;" vertex="1" parent="1">
          <mxGeometry x="340" y="331" width="70" height="24" as="geometry" />
        </mxCell>
        <mxCell id="i73I1j9JjoyaVxsubx8I-10" value="List" style="swimlane;fontStyle=0;childLayout=stackLayout;horizontal=1;startSize=20;fillColor=none;horizontalStack=0;resizeParent=1;resizeParentMax=0;resizeLast=0;collapsible=1;marginBottom=0;" vertex="1" parent="1">
          <mxGeometry x="330" y="375" width="180" height="110" as="geometry">
            <mxRectangle x="350" y="290" width="50" height="26" as="alternateBounds" />
          </mxGeometry>
        </mxCell>
        <mxCell id="i73I1j9JjoyaVxsubx8I-11" value="Item 1" style="text;strokeColor=none;fillColor=none;align=left;verticalAlign=top;spacingLeft=4;spacingRight=4;overflow=hidden;rotatable=0;points=[[0,0.5],[1,0.5]];portConstraint=eastwest;" vertex="1" parent="i73I1j9JjoyaVxsubx8I-10">
          <mxGeometry y="20" width="180" height="26" as="geometry" />
        </mxCell>
        <mxCell id="i73I1j9JjoyaVxsubx8I-12" value="todo.map" style="text;html=1;strokeColor=none;fillColor=#29CDFF;align=center;verticalAlign=middle;whiteSpace=wrap;rounded=0;" vertex="1" parent="i73I1j9JjoyaVxsubx8I-10">
          <mxGeometry y="46" width="180" height="20" as="geometry" />
        </mxCell>
        <mxCell id="i73I1j9JjoyaVxsubx8I-13" value="Item 2" style="text;strokeColor=none;fillColor=none;align=left;verticalAlign=top;spacingLeft=4;spacingRight=4;overflow=hidden;rotatable=0;points=[[0,0.5],[1,0.5]];portConstraint=eastwest;" vertex="1" parent="i73I1j9JjoyaVxsubx8I-10">
          <mxGeometry y="66" width="180" height="26" as="geometry" />
        </mxCell>
        <mxCell id="i73I1j9JjoyaVxsubx8I-14" value="Item 3" style="text;strokeColor=none;fillColor=none;align=left;verticalAlign=top;spacingLeft=4;spacingRight=4;overflow=hidden;rotatable=0;points=[[0,0.5],[1,0.5]];portConstraint=eastwest;" vertex="1" parent="i73I1j9JjoyaVxsubx8I-10">
          <mxGeometry y="92" width="180" height="18" as="geometry" />
        </mxCell>
        <mxCell id="i73I1j9JjoyaVxsubx8I-17" style="edgeStyle=orthogonalEdgeStyle;rounded=0;orthogonalLoop=1;jettySize=auto;html=1;entryX=0.25;entryY=0;entryDx=0;entryDy=0;" edge="1" parent="1" source="i73I1j9JjoyaVxsubx8I-18">
          <mxGeometry relative="1" as="geometry">
            <mxPoint x="420" y="280" as="targetPoint" />
          </mxGeometry>
        </mxCell>
        <mxCell id="i73I1j9JjoyaVxsubx8I-18" value="store" style="rounded=1;whiteSpace=wrap;html=1;" vertex="1" parent="1">
          <mxGeometry x="370" y="190" width="100" height="40" as="geometry" />
        </mxCell>
        <mxCell id="i73I1j9JjoyaVxsubx8I-26" style="edgeStyle=orthogonalEdgeStyle;rounded=0;orthogonalLoop=1;jettySize=auto;html=1;entryX=0.5;entryY=1;entryDx=0;entryDy=0;" edge="1" parent="1" source="i73I1j9JjoyaVxsubx8I-21" target="i73I1j9JjoyaVxsubx8I-25">
          <mxGeometry relative="1" as="geometry" />
        </mxCell>
        <mxCell id="i73I1j9JjoyaVxsubx8I-21" value="&lt;div style=&quot;color: rgb(212 , 212 , 212) ; background-color: rgb(30 , 30 , 30) ; font-family: &amp;#34;consolas&amp;#34; , &amp;#34;courier new&amp;#34; , monospace ; font-weight: normal ; font-size: 14px ; line-height: 19px&quot;&gt;&lt;div&gt;&lt;span style=&quot;font-family: &amp;#34;consolas&amp;#34; , &amp;#34;courier new&amp;#34; , monospace ; color: rgb(86 , 156 , 214)&quot;&gt;const&lt;/span&gt;&lt;span style=&quot;font-family: &amp;#34;consolas&amp;#34; , &amp;#34;courier new&amp;#34; , monospace&quot;&gt;&amp;nbsp;&lt;/span&gt;&lt;span style=&quot;font-family: &amp;#34;consolas&amp;#34; , &amp;#34;courier new&amp;#34; , monospace ; color: rgb(79 , 193 , 255)&quot;&gt;text&lt;/span&gt;&lt;span style=&quot;font-family: &amp;#34;consolas&amp;#34; , &amp;#34;courier new&amp;#34; , monospace&quot;&gt;&amp;nbsp;=&amp;nbsp;&lt;/span&gt;&lt;span style=&quot;font-family: &amp;#34;consolas&amp;#34; , &amp;#34;courier new&amp;#34; , monospace ; color: rgb(156 , 220 , 254)&quot;&gt;e&lt;/span&gt;&lt;span style=&quot;font-family: &amp;#34;consolas&amp;#34; , &amp;#34;courier new&amp;#34; , monospace&quot;&gt;.&lt;/span&gt;&lt;span style=&quot;font-family: &amp;#34;consolas&amp;#34; , &amp;#34;courier new&amp;#34; , monospace ; color: rgb(156 , 220 , 254)&quot;&gt;target&lt;/span&gt;&lt;span style=&quot;font-family: &amp;#34;consolas&amp;#34; , &amp;#34;courier new&amp;#34; , monospace&quot;&gt;.&lt;/span&gt;&lt;span style=&quot;font-family: &amp;#34;consolas&amp;#34; , &amp;#34;courier new&amp;#34; , monospace ; color: rgb(156 , 220 , 254)&quot;&gt;note&lt;/span&gt;&lt;span style=&quot;font-family: &amp;#34;consolas&amp;#34; , &amp;#34;courier new&amp;#34; , monospace&quot;&gt;.&lt;/span&gt;&lt;span style=&quot;font-family: &amp;#34;consolas&amp;#34; , &amp;#34;courier new&amp;#34; , monospace ; color: rgb(156 , 220 , 254)&quot;&gt;value&lt;/span&gt;&lt;span style=&quot;font-family: &amp;#34;consolas&amp;#34; , &amp;#34;courier new&amp;#34; , monospace&quot;&gt;;&lt;/span&gt;&lt;/div&gt;&lt;div&gt;&lt;span style=&quot;color: #dcdcaa&quot;&gt;dispatch&lt;/span&gt;&lt;span style=&quot;color: #d4d4d4&quot;&gt;(&lt;/span&gt;&lt;span style=&quot;color: #dcdcaa&quot;&gt;createNote&lt;/span&gt;&lt;span style=&quot;color: #d4d4d4&quot;&gt;(&lt;/span&gt;&lt;span style=&quot;color: #4fc1ff&quot;&gt;text&lt;/span&gt;&lt;span style=&quot;color: #d4d4d4&quot;&gt;));&lt;/span&gt;&lt;/div&gt;&lt;div&gt;&lt;br&gt;&lt;/div&gt;&lt;/div&gt;" style="text;whiteSpace=wrap;html=1;" vertex="1" parent="1">
          <mxGeometry x="10" y="383" width="260" height="50" as="geometry" />
        </mxCell>
        <mxCell id="i73I1j9JjoyaVxsubx8I-33" style="edgeStyle=orthogonalEdgeStyle;rounded=0;orthogonalLoop=1;jettySize=auto;html=1;entryX=1;entryY=0.5;entryDx=0;entryDy=0;" edge="1" parent="1" source="i73I1j9JjoyaVxsubx8I-25" target="i73I1j9JjoyaVxsubx8I-32">
          <mxGeometry relative="1" as="geometry" />
        </mxCell>
        <mxCell id="i73I1j9JjoyaVxsubx8I-25" value="&lt;div style=&quot;color: rgb(212, 212, 212); background-color: rgb(30, 30, 30); font-family: consolas, &amp;quot;courier new&amp;quot;, monospace; font-weight: normal; font-size: 14px; line-height: 19px;&quot;&gt;&lt;div&gt;&lt;span style=&quot;color: #c586c0&quot;&gt;export&lt;/span&gt;&lt;span style=&quot;color: #d4d4d4&quot;&gt;&amp;nbsp;&lt;/span&gt;&lt;span style=&quot;color: #569cd6&quot;&gt;const&lt;/span&gt;&lt;span style=&quot;color: #d4d4d4&quot;&gt;&amp;nbsp;&lt;/span&gt;&lt;span style=&quot;color: #dcdcaa&quot;&gt;createNote&lt;/span&gt;&lt;span style=&quot;color: #d4d4d4&quot;&gt;&amp;nbsp;=&amp;nbsp;(&lt;/span&gt;&lt;span style=&quot;color: #9cdcfe&quot;&gt;text&lt;/span&gt;&lt;span style=&quot;color: #d4d4d4&quot;&gt;)&amp;nbsp;&lt;/span&gt;&lt;span style=&quot;color: #569cd6&quot;&gt;=&amp;gt;&lt;/span&gt;&lt;span style=&quot;color: #d4d4d4&quot;&gt;&amp;nbsp;{&lt;/span&gt;&lt;/div&gt;&lt;div&gt;&lt;span style=&quot;color: #d4d4d4&quot;&gt;&amp;nbsp;&amp;nbsp;&lt;/span&gt;&lt;span style=&quot;color: #c586c0&quot;&gt;return&lt;/span&gt;&lt;span style=&quot;color: #d4d4d4&quot;&gt;&amp;nbsp;&lt;/span&gt;&lt;span style=&quot;color: #569cd6&quot;&gt;async&lt;/span&gt;&lt;span style=&quot;color: #d4d4d4&quot;&gt;&amp;nbsp;(&lt;/span&gt;&lt;span style=&quot;color: #9cdcfe&quot;&gt;dispatch&lt;/span&gt;&lt;span style=&quot;color: #d4d4d4&quot;&gt;)&amp;nbsp;&lt;/span&gt;&lt;span style=&quot;color: #569cd6&quot;&gt;=&amp;gt;&lt;/span&gt;&lt;span style=&quot;color: #d4d4d4&quot;&gt;&amp;nbsp;{&lt;/span&gt;&lt;/div&gt;&lt;div&gt;&lt;span style=&quot;color: #d4d4d4&quot;&gt;&amp;nbsp;&amp;nbsp;&amp;nbsp;&amp;nbsp;&lt;/span&gt;&lt;span style=&quot;color: #569cd6&quot;&gt;const&lt;/span&gt;&lt;span style=&quot;color: #d4d4d4&quot;&gt;&amp;nbsp;&lt;/span&gt;&lt;span style=&quot;color: #4fc1ff&quot;&gt;newNote&lt;/span&gt;&lt;span style=&quot;color: #d4d4d4&quot;&gt;&amp;nbsp;=&amp;nbsp;&lt;/span&gt;&lt;span style=&quot;color: #c586c0&quot;&gt;await&lt;/span&gt;&lt;span style=&quot;color: #d4d4d4&quot;&gt;&amp;nbsp;&lt;/span&gt;&lt;span style=&quot;color: #9cdcfe&quot;&gt;noteServices&lt;/span&gt;&lt;span style=&quot;color: #d4d4d4&quot;&gt;.&lt;/span&gt;&lt;span style=&quot;color: #dcdcaa&quot;&gt;createNew&lt;/span&gt;&lt;span style=&quot;color: #d4d4d4&quot;&gt;(&lt;/span&gt;&lt;span style=&quot;color: #9cdcfe&quot;&gt;text&lt;/span&gt;&lt;span style=&quot;color: #d4d4d4&quot;&gt;);&lt;/span&gt;&lt;/div&gt;&lt;div&gt;&lt;span style=&quot;color: #d4d4d4&quot;&gt;&amp;nbsp;&amp;nbsp;&amp;nbsp;&amp;nbsp;&lt;/span&gt;&lt;span style=&quot;color: #dcdcaa&quot;&gt;dispatch&lt;/span&gt;&lt;span style=&quot;color: #d4d4d4&quot;&gt;({&lt;/span&gt;&lt;/div&gt;&lt;div&gt;&lt;span style=&quot;color: #d4d4d4&quot;&gt;&amp;nbsp;&amp;nbsp;&amp;nbsp;&amp;nbsp;&amp;nbsp;&amp;nbsp;&lt;/span&gt;&lt;span style=&quot;color: #9cdcfe&quot;&gt;type&lt;/span&gt;&lt;span style=&quot;color: #9cdcfe&quot;&gt;:&lt;/span&gt;&lt;span style=&quot;color: #d4d4d4&quot;&gt;&amp;nbsp;&lt;/span&gt;&lt;span style=&quot;color: #9cdcfe&quot;&gt;actionTypes&lt;/span&gt;&lt;span style=&quot;color: #d4d4d4&quot;&gt;.&lt;/span&gt;&lt;span style=&quot;color: #4fc1ff&quot;&gt;ADD_TODO&lt;/span&gt;&lt;span style=&quot;color: #d4d4d4&quot;&gt;,&lt;/span&gt;&lt;/div&gt;&lt;div&gt;&lt;span style=&quot;color: #d4d4d4&quot;&gt;&amp;nbsp;&amp;nbsp;&amp;nbsp;&amp;nbsp;&amp;nbsp;&amp;nbsp;&lt;/span&gt;&lt;span style=&quot;color: #9cdcfe&quot;&gt;data&lt;/span&gt;&lt;span style=&quot;color: #9cdcfe&quot;&gt;:&lt;/span&gt;&lt;span style=&quot;color: #d4d4d4&quot;&gt;&amp;nbsp;&lt;/span&gt;&lt;span style=&quot;color: #4fc1ff&quot;&gt;newNote&lt;/span&gt;&lt;span style=&quot;color: #d4d4d4&quot;&gt;,&lt;/span&gt;&lt;/div&gt;&lt;div&gt;&lt;span style=&quot;color: #d4d4d4&quot;&gt;&amp;nbsp;&amp;nbsp;&amp;nbsp;&amp;nbsp;});&lt;/span&gt;&lt;/div&gt;&lt;div&gt;&lt;span style=&quot;color: #d4d4d4&quot;&gt;&amp;nbsp;&amp;nbsp;};&lt;/span&gt;&lt;/div&gt;&lt;div&gt;&lt;span style=&quot;color: #d4d4d4&quot;&gt;};&lt;/span&gt;&lt;/div&gt;&lt;/div&gt;" style="text;whiteSpace=wrap;html=1;" vertex="1" parent="1">
          <mxGeometry x="-80" y="90" width="460" height="180" as="geometry" />
        </mxCell>
        <mxCell id="i73I1j9JjoyaVxsubx8I-31" style="edgeStyle=orthogonalEdgeStyle;rounded=0;orthogonalLoop=1;jettySize=auto;html=1;exitX=1;exitY=0.5;exitDx=0;exitDy=0;entryX=0;entryY=0.25;entryDx=0;entryDy=0;" edge="1" parent="1" source="i73I1j9JjoyaVxsubx8I-27" target="i73I1j9JjoyaVxsubx8I-29">
          <mxGeometry relative="1" as="geometry" />
        </mxCell>
        <mxCell id="i73I1j9JjoyaVxsubx8I-27" value="&#xa;&#xa;&lt;div style=&quot;color: rgb(212, 212, 212); background-color: rgb(30, 30, 30); font-family: consolas, &amp;quot;courier new&amp;quot;, monospace; font-weight: normal; font-size: 14px; line-height: 19px;&quot;&gt;&lt;div&gt;&lt;span style=&quot;color: #c586c0&quot;&gt;export&lt;/span&gt;&lt;span style=&quot;color: #d4d4d4&quot;&gt;&amp;nbsp;&lt;/span&gt;&lt;span style=&quot;color: #569cd6&quot;&gt;const&lt;/span&gt;&lt;span style=&quot;color: #d4d4d4&quot;&gt;&amp;nbsp;&lt;/span&gt;&lt;span style=&quot;color: #4fc1ff&quot;&gt;ADD_TODO&lt;/span&gt;&lt;span style=&quot;color: #d4d4d4&quot;&gt;&amp;nbsp;=&amp;nbsp;&lt;/span&gt;&lt;span style=&quot;color: #ce9178&quot;&gt;&quot;ADD_TODO&quot;&lt;/span&gt;&lt;span style=&quot;color: #d4d4d4&quot;&gt;;&lt;/span&gt;&lt;/div&gt;&lt;/div&gt;&#xa;&#xa;" style="rounded=1;whiteSpace=wrap;html=1;" vertex="1" parent="1">
          <mxGeometry x="-10" y="-20" width="300" height="60" as="geometry" />
        </mxCell>
        <mxCell id="i73I1j9JjoyaVxsubx8I-28" value="Action" style="text;html=1;strokeColor=none;fillColor=none;align=center;verticalAlign=middle;whiteSpace=wrap;rounded=0;" vertex="1" parent="1">
          <mxGeometry x="50" y="-50" width="40" height="20" as="geometry" />
        </mxCell>
        <mxCell id="i73I1j9JjoyaVxsubx8I-29" value="Reducer" style="rounded=0;whiteSpace=wrap;html=1;" vertex="1" parent="1">
          <mxGeometry x="590" width="120" height="60" as="geometry" />
        </mxCell>
        <mxCell id="i73I1j9JjoyaVxsubx8I-37" style="edgeStyle=orthogonalEdgeStyle;rounded=0;orthogonalLoop=1;jettySize=auto;html=1;entryX=0.5;entryY=0;entryDx=0;entryDy=0;" edge="1" parent="1" source="i73I1j9JjoyaVxsubx8I-30" target="i73I1j9JjoyaVxsubx8I-36">
          <mxGeometry relative="1" as="geometry" />
        </mxCell>
        <mxCell id="i73I1j9JjoyaVxsubx8I-30" value="&lt;div style=&quot;color: rgb(212 , 212 , 212) ; background-color: rgb(30 , 30 , 30) ; font-family: &amp;#34;consolas&amp;#34; , &amp;#34;courier new&amp;#34; , monospace ; font-weight: normal ; font-size: 14px ; line-height: 19px&quot;&gt;&lt;div&gt;&lt;span style=&quot;color: #569cd6&quot;&gt;const&lt;/span&gt;&lt;span style=&quot;color: #d4d4d4&quot;&gt;&amp;nbsp;&lt;/span&gt;&lt;span style=&quot;color: #dcdcaa&quot;&gt;reducer&lt;/span&gt;&lt;span style=&quot;color: #d4d4d4&quot;&gt;&amp;nbsp;=&amp;nbsp;(&lt;/span&gt;&lt;span style=&quot;color: #9cdcfe&quot;&gt;state&lt;/span&gt;&lt;span style=&quot;color: #d4d4d4&quot;&gt;&amp;nbsp;=&amp;nbsp;[],&amp;nbsp;&lt;/span&gt;&lt;span style=&quot;color: #9cdcfe&quot;&gt;action&lt;/span&gt;&lt;span style=&quot;color: #d4d4d4&quot;&gt;)&amp;nbsp;&lt;/span&gt;&lt;span style=&quot;color: #569cd6&quot;&gt;=&amp;gt;&lt;/span&gt;&lt;span style=&quot;color: #d4d4d4&quot;&gt;&amp;nbsp;{&lt;/span&gt;&lt;/div&gt;&lt;div&gt;&lt;span style=&quot;color: #d4d4d4&quot;&gt;&amp;nbsp;&amp;nbsp;&lt;/span&gt;&lt;span style=&quot;color: #c586c0&quot;&gt;switch&lt;/span&gt;&lt;span style=&quot;color: #d4d4d4&quot;&gt;&amp;nbsp;(&lt;/span&gt;&lt;span style=&quot;color: #9cdcfe&quot;&gt;action&lt;/span&gt;&lt;span style=&quot;color: #d4d4d4&quot;&gt;.&lt;/span&gt;&lt;span style=&quot;color: #9cdcfe&quot;&gt;type&lt;/span&gt;&lt;span style=&quot;color: #d4d4d4&quot;&gt;)&amp;nbsp;{&lt;/span&gt;&lt;/div&gt;&lt;div&gt;&lt;span style=&quot;color: #d4d4d4&quot;&gt;&amp;nbsp;&amp;nbsp;&amp;nbsp;&amp;nbsp;&lt;/span&gt;&lt;br&gt;&lt;/div&gt;&lt;br&gt;&lt;div&gt;&lt;span style=&quot;color: #d4d4d4&quot;&gt;&amp;nbsp;&amp;nbsp;&amp;nbsp;&amp;nbsp;&lt;/span&gt;&lt;span style=&quot;color: #c586c0&quot;&gt;case&lt;/span&gt;&lt;span style=&quot;color: #d4d4d4&quot;&gt;&amp;nbsp;&lt;/span&gt;&lt;span style=&quot;color: #9cdcfe&quot;&gt;actionTypes&lt;/span&gt;&lt;span style=&quot;color: #d4d4d4&quot;&gt;.&lt;/span&gt;&lt;span style=&quot;color: #4fc1ff&quot;&gt;ADD_TODO&lt;/span&gt;&lt;span style=&quot;color: #d4d4d4&quot;&gt;:&lt;/span&gt;&lt;/div&gt;&lt;div&gt;&lt;span style=&quot;color: #d4d4d4&quot;&gt;&amp;nbsp;&amp;nbsp;&amp;nbsp;&amp;nbsp;&amp;nbsp;&amp;nbsp;&lt;/span&gt;&lt;span style=&quot;color: #c586c0&quot;&gt;return&lt;/span&gt;&lt;span style=&quot;color: #d4d4d4&quot;&gt;&amp;nbsp;[...&lt;/span&gt;&lt;span style=&quot;color: #9cdcfe&quot;&gt;state&lt;/span&gt;&lt;span style=&quot;color: #d4d4d4&quot;&gt;,&amp;nbsp;&lt;/span&gt;&lt;span style=&quot;color: #9cdcfe&quot;&gt;action&lt;/span&gt;&lt;span style=&quot;color: #d4d4d4&quot;&gt;.&lt;/span&gt;&lt;span style=&quot;color: #9cdcfe&quot;&gt;data&lt;/span&gt;&lt;span style=&quot;color: #d4d4d4&quot;&gt;];&lt;/span&gt;&lt;/div&gt;&lt;br&gt;&lt;div&gt;&lt;span style=&quot;color: #d4d4d4&quot;&gt;&amp;nbsp;&amp;nbsp;&amp;nbsp;&amp;nbsp;&lt;/span&gt;&lt;/div&gt;&lt;div&gt;&lt;span style=&quot;color: #d4d4d4&quot;&gt;&amp;nbsp;&amp;nbsp;&amp;nbsp;&amp;nbsp;&lt;/span&gt;&lt;span style=&quot;color: #c586c0&quot;&gt;default&lt;/span&gt;&lt;span style=&quot;color: #d4d4d4&quot;&gt;:&lt;/span&gt;&lt;/div&gt;&lt;div&gt;&lt;span style=&quot;color: #d4d4d4&quot;&gt;&amp;nbsp;&amp;nbsp;&amp;nbsp;&amp;nbsp;&amp;nbsp;&amp;nbsp;&lt;/span&gt;&lt;span style=&quot;color: #c586c0&quot;&gt;return&lt;/span&gt;&lt;span style=&quot;color: #d4d4d4&quot;&gt;&amp;nbsp;&lt;/span&gt;&lt;span style=&quot;color: #9cdcfe&quot;&gt;state&lt;/span&gt;&lt;span style=&quot;color: #d4d4d4&quot;&gt;;&lt;/span&gt;&lt;/div&gt;&lt;div&gt;&lt;span style=&quot;color: #d4d4d4&quot;&gt;&amp;nbsp;&amp;nbsp;}&lt;/span&gt;&lt;/div&gt;&lt;div&gt;&lt;span style=&quot;color: #d4d4d4&quot;&gt;};&lt;/span&gt;&lt;/div&gt;&lt;/div&gt;" style="text;whiteSpace=wrap;html=1;" vertex="1" parent="1">
          <mxGeometry x="680" y="-30" width="320" height="230" as="geometry" />
        </mxCell>
        <mxCell id="i73I1j9JjoyaVxsubx8I-32" value="&lt;div style=&quot;color: rgb(212, 212, 212); background-color: rgb(30, 30, 30); font-family: consolas, &amp;quot;courier new&amp;quot;, monospace; font-weight: normal; font-size: 14px; line-height: 19px;&quot;&gt;&lt;div&gt;&lt;span style=&quot;color: #569cd6&quot;&gt;const&lt;/span&gt;&lt;span style=&quot;color: #d4d4d4&quot;&gt;&amp;nbsp;&lt;/span&gt;&lt;span style=&quot;color: #dcdcaa&quot;&gt;createNew&lt;/span&gt;&lt;span style=&quot;color: #d4d4d4&quot;&gt;&amp;nbsp;=&amp;nbsp;&lt;/span&gt;&lt;span style=&quot;color: #569cd6&quot;&gt;async&lt;/span&gt;&lt;span style=&quot;color: #d4d4d4&quot;&gt;&amp;nbsp;(&lt;/span&gt;&lt;span style=&quot;color: #9cdcfe&quot;&gt;text&lt;/span&gt;&lt;span style=&quot;color: #d4d4d4&quot;&gt;)&amp;nbsp;&lt;/span&gt;&lt;span style=&quot;color: #569cd6&quot;&gt;=&amp;gt;&lt;/span&gt;&lt;span style=&quot;color: #d4d4d4&quot;&gt;&amp;nbsp;{&lt;/span&gt;&lt;/div&gt;&lt;div&gt;&lt;span style=&quot;color: #d4d4d4&quot;&gt;&amp;nbsp;&amp;nbsp;&lt;/span&gt;&lt;span style=&quot;color: #569cd6&quot;&gt;const&lt;/span&gt;&lt;span style=&quot;color: #d4d4d4&quot;&gt;&amp;nbsp;&lt;/span&gt;&lt;span style=&quot;color: #4fc1ff&quot;&gt;object&lt;/span&gt;&lt;span style=&quot;color: #d4d4d4&quot;&gt;&amp;nbsp;=&amp;nbsp;{&amp;nbsp;&lt;/span&gt;&lt;span style=&quot;color: #9cdcfe&quot;&gt;text&lt;/span&gt;&lt;span style=&quot;color: #d4d4d4&quot;&gt;,&amp;nbsp;&lt;/span&gt;&lt;span style=&quot;color: #9cdcfe&quot;&gt;completed&lt;/span&gt;&lt;span style=&quot;color: #9cdcfe&quot;&gt;:&lt;/span&gt;&lt;span style=&quot;color: #d4d4d4&quot;&gt;&amp;nbsp;&lt;/span&gt;&lt;span style=&quot;color: #569cd6&quot;&gt;false&lt;/span&gt;&lt;span style=&quot;color: #d4d4d4&quot;&gt;&amp;nbsp;};&lt;/span&gt;&lt;/div&gt;&lt;div&gt;&lt;span style=&quot;color: #d4d4d4&quot;&gt;&amp;nbsp;&amp;nbsp;&lt;/span&gt;&lt;span style=&quot;color: #569cd6&quot;&gt;const&lt;/span&gt;&lt;span style=&quot;color: #d4d4d4&quot;&gt;&amp;nbsp;&lt;/span&gt;&lt;span style=&quot;color: #4fc1ff&quot;&gt;response&lt;/span&gt;&lt;span style=&quot;color: #d4d4d4&quot;&gt;&amp;nbsp;=&amp;nbsp;&lt;/span&gt;&lt;span style=&quot;color: #c586c0&quot;&gt;await&lt;/span&gt;&lt;span style=&quot;color: #d4d4d4&quot;&gt;&amp;nbsp;&lt;/span&gt;&lt;span style=&quot;color: #4fc1ff&quot;&gt;axios&lt;/span&gt;&lt;span style=&quot;color: #d4d4d4&quot;&gt;.&lt;/span&gt;&lt;span style=&quot;color: #dcdcaa&quot;&gt;post&lt;/span&gt;&lt;span style=&quot;color: #d4d4d4&quot;&gt;(&lt;/span&gt;&lt;span style=&quot;color: #4fc1ff&quot;&gt;baseUrl&lt;/span&gt;&lt;span style=&quot;color: #d4d4d4&quot;&gt;,&amp;nbsp;&lt;/span&gt;&lt;span style=&quot;color: #4fc1ff&quot;&gt;object&lt;/span&gt;&lt;span style=&quot;color: #d4d4d4&quot;&gt;);&lt;/span&gt;&lt;/div&gt;&lt;div&gt;&lt;span style=&quot;color: #d4d4d4&quot;&gt;&amp;nbsp;&amp;nbsp;&lt;/span&gt;&lt;span style=&quot;color: #c586c0&quot;&gt;return&lt;/span&gt;&lt;span style=&quot;color: #d4d4d4&quot;&gt;&amp;nbsp;&lt;/span&gt;&lt;span style=&quot;color: #4fc1ff&quot;&gt;response&lt;/span&gt;&lt;span style=&quot;color: #d4d4d4&quot;&gt;.&lt;/span&gt;&lt;span style=&quot;color: #9cdcfe&quot;&gt;data&lt;/span&gt;&lt;span style=&quot;color: #d4d4d4&quot;&gt;;&lt;/span&gt;&lt;/div&gt;&lt;div&gt;&lt;span style=&quot;color: #d4d4d4&quot;&gt;};&lt;/span&gt;&lt;/div&gt;&lt;/div&gt;" style="text;whiteSpace=wrap;html=1;" vertex="1" parent="1">
          <mxGeometry x="-560" y="110" width="430" height="110" as="geometry" />
        </mxCell>
        <mxCell id="i73I1j9JjoyaVxsubx8I-35" value="axios" style="text;html=1;strokeColor=none;fillColor=none;align=center;verticalAlign=middle;whiteSpace=wrap;rounded=0;" vertex="1" parent="1">
          <mxGeometry x="-500" y="80" width="40" height="20" as="geometry" />
        </mxCell>
        <mxCell id="i73I1j9JjoyaVxsubx8I-40" style="edgeStyle=orthogonalEdgeStyle;rounded=0;orthogonalLoop=1;jettySize=auto;html=1;entryX=1;entryY=0.25;entryDx=0;entryDy=0;" edge="1" parent="1" source="i73I1j9JjoyaVxsubx8I-36" target="i73I1j9JjoyaVxsubx8I-12">
          <mxGeometry relative="1" as="geometry" />
        </mxCell>
        <mxCell id="i73I1j9JjoyaVxsubx8I-36" value="&lt;div style=&quot;color: rgb(212, 212, 212); background-color: rgb(30, 30, 30); font-family: consolas, &amp;quot;courier new&amp;quot;, monospace; font-weight: normal; font-size: 14px; line-height: 19px;&quot;&gt;&lt;div&gt;&lt;span style=&quot;color: #d4d4d4&quot;&gt;&amp;nbsp;&lt;/span&gt;&lt;span style=&quot;color: #569cd6&quot;&gt;const&lt;/span&gt;&lt;span style=&quot;color: #d4d4d4&quot;&gt;&amp;nbsp;&lt;/span&gt;&lt;span style=&quot;color: #4fc1ff&quot;&gt;notes&lt;/span&gt;&lt;span style=&quot;color: #d4d4d4&quot;&gt;&amp;nbsp;=&amp;nbsp;&lt;/span&gt;&lt;span style=&quot;color: #dcdcaa&quot;&gt;useSelector&lt;/span&gt;&lt;span style=&quot;color: #d4d4d4&quot;&gt;((&lt;/span&gt;&lt;span style=&quot;color: #9cdcfe&quot;&gt;state&lt;/span&gt;&lt;span style=&quot;color: #d4d4d4&quot;&gt;)&amp;nbsp;&lt;/span&gt;&lt;span style=&quot;color: #569cd6&quot;&gt;=&amp;gt;&lt;/span&gt;&lt;span style=&quot;color: #d4d4d4&quot;&gt;&amp;nbsp;&lt;/span&gt;&lt;span style=&quot;color: #9cdcfe&quot;&gt;state&lt;/span&gt;&lt;span style=&quot;color: #d4d4d4&quot;&gt;);&lt;/span&gt;&lt;/div&gt;&lt;/div&gt;" style="text;whiteSpace=wrap;html=1;" vertex="1" parent="1">
          <mxGeometry x="610" y="415" width="370" height="30" as="geometry" />
        </mxCell>
        <mxCell id="i73I1j9JjoyaVxsubx8I-42" style="edgeStyle=orthogonalEdgeStyle;rounded=0;orthogonalLoop=1;jettySize=auto;html=1;entryX=0.002;entryY=0.844;entryDx=0;entryDy=0;entryPerimeter=0;" edge="1" parent="1" source="i73I1j9JjoyaVxsubx8I-41" target="i73I1j9JjoyaVxsubx8I-30">
          <mxGeometry relative="1" as="geometry" />
        </mxCell>
        <mxCell id="i73I1j9JjoyaVxsubx8I-41" value="&lt;div style=&quot;color: rgb(212, 212, 212); background-color: rgb(30, 30, 30); font-family: consolas, &amp;quot;courier new&amp;quot;, monospace; font-weight: normal; font-size: 14px; line-height: 19px;&quot;&gt;&lt;div&gt;&lt;span style=&quot;color: #d4d4d4&quot;&gt;&amp;nbsp;&lt;/span&gt;&lt;span style=&quot;color: #808080&quot;&gt;&amp;lt;&lt;/span&gt;&lt;span style=&quot;color: #4ec9b0&quot;&gt;Provider&lt;/span&gt;&lt;span style=&quot;color: #d4d4d4&quot;&gt;&amp;nbsp;&lt;/span&gt;&lt;span style=&quot;color: #9cdcfe&quot;&gt;store&lt;/span&gt;&lt;span style=&quot;color: #d4d4d4&quot;&gt;=&lt;/span&gt;&lt;span style=&quot;color: #569cd6&quot;&gt;{&lt;/span&gt;&lt;span style=&quot;color: #4fc1ff&quot;&gt;todoStore&lt;/span&gt;&lt;span style=&quot;color: #569cd6&quot;&gt;}&lt;/span&gt;&lt;span style=&quot;color: #808080&quot;&gt;&amp;gt;&lt;/span&gt;&lt;/div&gt;&lt;div&gt;&lt;span style=&quot;color: #d4d4d4&quot;&gt;&amp;nbsp;&amp;nbsp;&amp;nbsp;&amp;nbsp;&lt;/span&gt;&lt;span style=&quot;color: #808080&quot;&gt;&amp;lt;&lt;/span&gt;&lt;span style=&quot;color: #4ec9b0&quot;&gt;App&lt;/span&gt;&lt;span style=&quot;color: #d4d4d4&quot;&gt;&amp;nbsp;&lt;/span&gt;&lt;span style=&quot;color: #808080&quot;&gt;/&amp;gt;&lt;/span&gt;&lt;/div&gt;&lt;div&gt;&lt;span style=&quot;color: #d4d4d4&quot;&gt;&amp;nbsp;&amp;nbsp;&lt;/span&gt;&lt;span style=&quot;color: #808080&quot;&gt;&amp;lt;/&lt;/span&gt;&lt;span style=&quot;color: #4ec9b0&quot;&gt;Provider&lt;/span&gt;&lt;span style=&quot;color: #808080&quot;&gt;&amp;gt;&lt;/span&gt;&lt;/div&gt;&lt;/div&gt;" style="text;whiteSpace=wrap;html=1;" vertex="1" parent="1">
          <mxGeometry x="370" y="130" width="220" height="70" as="geometry" />
        </mxCell>
      </root>
    </mxGraphModel>
  </diagram>
</mxfile>
